<svg xmlns="http://www.w3.org/2000/svg" viewBox="0 0 200 200">
  <!-- Background circle -->
  <circle cx="100" cy="100" r="98" fill="#1e3a8a" stroke="#fbbf24" stroke-width="4"/>
  
  <!-- Torch flame -->
  <ellipse cx="100" cy="52" rx="10" ry="16" fill="#f97316"/>
  <ellipse cx="100" cy="48" rx="6" ry="12" fill="#fbbf24"/>
  <ellipse cx="100" cy="45" rx="3" ry="8" fill="#fef08a"/>
  
  <!-- Torch handle -->
  <rect x="96" y="64" width="8" height="22" rx="3" fill="#92400e"/>
  <rect x="97" y="64" width="2" height="22" fill="#b45309" opacity="0.5"/>
  
  <!-- Open book -->
  <path d="M65 90 Q100 82 100 82 Q100 82 135 90 L135 118 Q100 110 100 110 Q100 110 65 118 Z" fill="white" stroke="#1e3a8a" stroke-width="1.5"/>
  <line x1="100" y1="82" x2="100" y2="110" stroke="#1e3a8a" stroke-width="1.5"/>
  <!-- Book lines left -->
  <line x1="72" y1="97" x2="97" y2="93" stroke="#93c5fd" stroke-width="1" opacity="0.7"/>
  <line x1="72" y1="103" x2="97" y2="99" stroke="#93c5fd" stroke-width="1" opacity="0.7"/>
  <line x1="72" y1="109" x2="97" y2="105" stroke="#93c5fd" stroke-width="1" opacity="0.7"/>
  <!-- Book lines right -->
  <line x1="103" y1="93" x2="128" y2="97" stroke="#93c5fd" stroke-width="1" opacity="0.7"/>
  <line x1="103" y1="99" x2="128" y2="103" stroke="#93c5fd" stroke-width="1" opacity="0.7"/>
  <line x1="103" y1="105" x2="128" y2="109" stroke="#93c5fd" stroke-width="1" opacity="0.7"/>
  
  <!-- Rays around torch -->
  <line x1="100" y1="30" x2="100" y2="18" stroke="#fbbf24" stroke-width="3" stroke-linecap="round"/>
  <line x1="120" y1="36" x2="130" y2="26" stroke="#fbbf24" stroke-width="2.5" stroke-linecap="round"/>
  <line x1="80" y1="36" x2="70" y2="26" stroke="#fbbf24" stroke-width="2.5" stroke-linecap="round"/>
  <line x1="130" y1="52" x2="142" y2="48" stroke="#fbbf24" stroke-width="2" stroke-linecap="round"/>
  <line x1="70" y1="52" x2="58" y2="48" stroke="#fbbf24" stroke-width="2" stroke-linecap="round"/>
  
  <!-- Decorative flowers -->
  <circle cx="68" cy="80" r="5" fill="#ec4899" opacity="0.8"/>
  <circle cx="68" cy="70" r="4" fill="#ec4899" opacity="0.6"/>
  <circle cx="60" cy="75" r="4" fill="#ec4899" opacity="0.6"/>
  <circle cx="76" cy="75" r="4" fill="#ec4899" opacity="0.6"/>
  
  <circle cx="132" cy="80" r="5" fill="#ec4899" opacity="0.8"/>
  <circle cx="132" cy="70" r="4" fill="#ec4899" opacity="0.6"/>
  <circle cx="124" cy="75" r="4" fill="#ec4899" opacity="0.6"/>
  <circle cx="140" cy="75" r="4" fill="#ec4899" opacity="0.6"/>
  
  <!-- Olympic rings style circles at bottom -->
  <circle cx="78" cy="122" r="7" fill="none" stroke="#60a5fa" stroke-width="2.5"/>
  <circle cx="90" cy="122" r="7" fill="none" stroke="#60a5fa" stroke-width="2.5"/>
  <circle cx="102" cy="122" r="7" fill="none" stroke="#60a5fa" stroke-width="2.5"/>
  <circle cx="114" cy="122" r="7" fill="none" stroke="#60a5fa" stroke-width="2.5"/>
  <circle cx="126" cy="122" r="7" fill="none" stroke="#60a5fa" stroke-width="2.5"/>
  
  <!-- Yellow banner -->
  <path d="M30 138 Q100 130 170 138 L165 158 Q100 152 35 158 Z" fill="#fbbf24"/>
  <path d="M30 138 L20 148 L35 158 Z" fill="#f59e0b"/>
  <path d="M170 138 L180 148 L165 158 Z" fill="#f59e0b"/>
  
  <!-- School name text -->
  <text x="100" y="151" text-anchor="middle" font-family="Arial, sans-serif" font-size="11" font-weight="bold" fill="#1e3a8a">โรงเรียนเซกา</text>
</svg>
